<svg id="Layer_1" data-name="Layer 1" xmlns="http://www.w3.org/2000/svg" viewBox="0 0 512 512"><defs><style>.cls-1{fill:#141f38;}</style></defs><title>scale-glyph</title><path class="cls-1" d="M426.71,51.2H499.2a12.8,12.8,0,1,0,0-25.6H268.8V12.8a12.8,12.8,0,1,0-25.6,0V25.6H12.8a12.8,12.8,0,0,0,0,25.6H85.29l-56.47,192H0a102.4,102.4,0,0,0,204.8,0H176l-56.47-192H243.2v346c-54.11,2.85-102.1,23.6-134.76,55-22.6,21.7-7.32,59.88,24,59.88h247.1c31.33,0,46.61-38.18,24-59.88-32.66-31.35-80.66-52.1-134.76-55V51.2H392.49L336,243.2H307.2a102.4,102.4,0,1,0,204.8,0H483.18Zm-371.2,192L102.4,83.77,149.29,243.2ZM409.6,83.77,456.49,243.2H362.71Z"/></svg>