<?xml version="1.0" encoding="iso-8859-1"?>
<!-- Generator: Adobe Illustrator 19.0.0, SVG Export Plug-In . SVG Version: 6.00 Build 0)  -->
<svg version="1.1" id="Layer_1" xmlns="http://www.w3.org/2000/svg" xmlns:xlink="http://www.w3.org/1999/xlink" x="0px" y="0px"
	 viewBox="0 0 512 512" style="enable-background:new 0 0 512 512;" xml:space="preserve">
<g>
	<g>
		<g>
			<path d="M512,157.744V65.448c0-17.662-14.369-32.033-32.033-32.033h-32.641v-3.054c0-2.962-1.62-5.687-4.222-7.101l-40.96-22.277
				C400.958,0.337,399.632,0,398.282,0h-42.741c-4.466,0-8.084,3.62-8.084,8.084s3.618,8.084,8.084,8.084h40.685l31.711,17.246
				H85.141l31.711-17.246h211.204c4.466,0,8.084-3.62,8.084-8.084S332.521,0,328.055,0H114.796c-1.349,0-2.676,0.337-3.862,0.982
				l-40.96,22.277c-2.602,1.415-4.222,4.14-4.222,7.102v3.054H32.033C14.369,33.415,0,47.785,0,65.448v92.297
				c0,9.519,4.178,18.076,10.791,23.949C4.178,187.564,0,196.122,0,205.641v92.297c0,9.519,4.178,18.076,10.791,23.949
				C4.178,327.759,0,336.316,0,345.835v92.297c0,17.662,14.369,32.033,32.033,32.033h14.978v20.816
				c0,11.59,9.429,21.019,21.019,21.019h50.303c11.59,0,21.019-9.429,21.019-21.019v-20.817h32.954c4.466,0,8.084-3.62,8.084-8.084
				s-3.618-8.084-8.084-8.084h-41.039H55.096H32.033c-8.747,0-15.864-7.117-15.864-15.864v-92.297
				c0-8.747,7.117-15.864,15.864-15.864h447.934c8.747,0,15.864,7.117,15.864,15.864v92.297c0,8.747-7.117,15.864-15.864,15.864
				h-21.986h-76.173H198.714c-4.466,0-8.084,3.62-8.084,8.084c0,4.465,3.618,8.084,8.084,8.084h175.009v20.817
				c0,11.59,9.429,21.019,21.019,21.019h50.303c11.59,0,21.019-9.429,21.019-21.019v-20.817h13.902
				c17.663,0,32.033-14.37,32.033-32.033v-92.297c0-9.519-4.178-18.076-10.791-23.949c6.613-5.872,10.791-14.43,10.791-23.949
				v-92.296c0-9.519-4.178-18.076-10.791-23.949C507.822,175.821,512,167.263,512,157.744z M63.18,470.164h60.004v0.001v20.816
				c0,2.674-2.176,4.851-4.851,4.851H68.03c-2.674,0-4.851-2.176-4.851-4.851V470.164z M449.897,490.981
				c0,2.674-2.176,4.851-4.851,4.851h-50.303c-2.674,0-4.851-2.176-4.851-4.851v-20.817h60.004V490.981z M495.832,297.938
				c0,8.747-7.117,15.864-15.864,15.864H32.033c-8.747,0-15.864-7.117-15.864-15.864v-92.297c0-8.747,7.117-15.864,15.864-15.864
				h447.934c8.747,0.001,15.864,7.117,15.864,15.864V297.938z M495.832,157.744c0,8.747-7.117,15.864-15.864,15.864H32.033
				c-8.747,0-15.864-7.117-15.864-15.864V65.448c0-8.747,7.117-15.864,15.864-15.864h41.803h365.406h40.725
				c8.747,0,15.864,7.117,15.864,15.864V157.744z"/>
			<path d="M103.375,88.78c-12.581,0-22.816,10.236-22.816,22.816c0,12.58,10.235,22.816,22.816,22.816s22.816-10.236,22.816-22.816
				C126.191,99.015,115.957,88.78,103.375,88.78z M103.375,118.243c-3.665,0-6.647-2.983-6.647-6.647s2.982-6.647,6.647-6.647
				s6.647,2.982,6.647,6.647S107.041,118.243,103.375,118.243z"/>
			<path d="M103.375,228.974c-12.581,0-22.816,10.236-22.816,22.816c0,12.58,10.235,22.816,22.816,22.816
				s22.816-10.236,22.816-22.816C126.191,239.21,115.957,228.974,103.375,228.974z M103.375,258.437
				c-3.665,0-6.647-2.983-6.647-6.647s2.982-6.647,6.647-6.647s6.647,2.982,6.647,6.647S107.04,258.437,103.375,258.437z"/>
			<path d="M103.375,369.167c-12.581,0-22.816,10.236-22.816,22.816c0,12.58,10.235,22.816,22.816,22.816
				s22.816-10.236,22.816-22.816C126.191,379.403,115.957,369.167,103.375,369.167z M103.375,398.63
				c-3.665,0-6.647-2.983-6.647-6.647c0-3.665,2.982-6.647,6.647-6.647s6.647,2.983,6.647,6.647
				C110.023,395.648,107.041,398.63,103.375,398.63z"/>
			<path d="M456.903,75.473H292.832c-4.466,0-8.084,3.62-8.084,8.084c0,4.465,3.618,8.084,8.084,8.084h164.072
				c4.466,0,8.084-3.62,8.084-8.084C464.988,79.093,461.368,75.473,456.903,75.473z"/>
			<path d="M456.903,103.511H292.832c-4.466,0-8.084,3.62-8.084,8.084c0,4.465,3.618,8.084,8.084,8.084h164.072
				c4.466,0,8.084-3.62,8.084-8.084C464.988,107.131,461.368,103.511,456.903,103.511z"/>
			<path d="M456.903,131.551H292.832c-4.466,0-8.084,3.62-8.084,8.084c0,4.465,3.618,8.084,8.084,8.084h164.072
				c4.466,0,8.084-3.62,8.084-8.084C464.988,135.17,461.368,131.551,456.903,131.551z"/>
			<path d="M456.903,215.667H292.832c-4.466,0-8.084,3.62-8.084,8.084c0,4.465,3.618,8.084,8.084,8.084h164.072
				c4.466,0,8.084-3.62,8.084-8.084C464.988,219.287,461.369,215.667,456.903,215.667z"/>
			<path d="M456.903,243.705H292.832c-4.466,0-8.084,3.62-8.084,8.084c0,4.465,3.618,8.084,8.084,8.084h164.072
				c4.466,0,8.084-3.62,8.084-8.084C464.988,247.325,461.369,243.705,456.903,243.705z"/>
			<path d="M456.903,271.744H292.832c-4.466,0-8.084,3.62-8.084,8.084c0,4.465,3.618,8.084,8.084,8.084h164.072
				c4.466,0,8.084-3.62,8.084-8.084C464.988,275.363,461.369,271.744,456.903,271.744z"/>
			<path d="M292.832,372.029h164.072c4.466,0,8.084-3.62,8.084-8.084s-3.618-8.084-8.084-8.084H292.832
				c-4.466,0-8.084,3.62-8.084,8.084S288.366,372.029,292.832,372.029z"/>
			<path d="M292.832,400.067h164.072c4.466,0,8.084-3.62,8.084-8.084c0-4.465-3.618-8.084-8.084-8.084H292.832
				c-4.466,0-8.084,3.62-8.084,8.084C284.747,396.448,288.366,400.067,292.832,400.067z"/>
			<path d="M292.832,428.106h164.072c4.466,0,8.084-3.62,8.084-8.084c0-4.465-3.618-8.084-8.084-8.084H292.832
				c-4.466,0-8.084,3.62-8.084,8.084C284.747,424.487,288.366,428.106,292.832,428.106z"/>
			<path d="M158.834,103.511h-10.011c-3.835-21.615-22.748-38.085-45.447-38.085c-22.701,0-41.612,16.47-45.447,38.085H47.917
				c-4.466,0-8.084,3.62-8.084,8.084c0,4.465,3.618,8.084,8.084,8.084h10.011c3.835,21.615,22.747,38.085,45.447,38.085
				c22.7,0,41.612-16.471,45.447-38.085h10.011c4.466,0,8.084-3.62,8.084-8.084C166.918,107.131,163.3,103.511,158.834,103.511z
				 M103.375,141.598c-16.544,0-30.002-13.459-30.002-30.001c0-16.542,13.459-30.001,30.002-30.001s30.002,13.459,30.002,30.001
				C133.378,128.139,119.919,141.598,103.375,141.598z"/>
			<path d="M148.823,383.899c-3.835-21.615-22.748-38.085-45.447-38.085c-22.7,0-41.612,16.47-45.447,38.085H47.917
				c-4.466,0-8.084,3.62-8.084,8.084c0,4.465,3.619,8.084,8.084,8.084h10.011c3.835,21.615,22.747,38.085,45.447,38.085
				c22.701,0,41.612-16.471,45.447-38.085h10.011c4.466,0,8.084-3.62,8.084-8.084c0-4.465-3.618-8.084-8.084-8.084H148.823z
				 M103.375,421.985c-16.544,0-30.002-13.459-30.002-30.001s13.459-30.001,30.002-30.001s30.002,13.459,30.002,30.001
				S119.919,421.985,103.375,421.985z"/>
			<path d="M158.834,243.705h-10.011c-3.835-21.615-22.748-38.085-45.447-38.085c-22.7,0-41.612,16.47-45.447,38.085H47.917
				c-4.466,0-8.084,3.62-8.084,8.084c0,4.465,3.62,8.084,8.084,8.084h10.011c3.835,21.615,22.747,38.085,45.447,38.085
				c22.701,0,41.612-16.471,45.447-38.085h10.011c4.466,0,8.084-3.62,8.084-8.084C166.918,247.325,163.3,243.705,158.834,243.705z
				 M103.375,281.79c-16.544,0-30.002-13.459-30.002-30.001c0-16.542,13.46-30.001,30.002-30.001
				c16.544,0,30.002,13.459,30.002,30.001C133.378,268.331,119.919,281.79,103.375,281.79z"/>
		</g>
	</g>
</g>
<g>
</g>
<g>
</g>
<g>
</g>
<g>
</g>
<g>
</g>
<g>
</g>
<g>
</g>
<g>
</g>
<g>
</g>
<g>
</g>
<g>
</g>
<g>
</g>
<g>
</g>
<g>
</g>
<g>
</g>
</svg>
